<?xml version="1.0" encoding="iso-8859-1"?>
<!-- Generator: Adobe Illustrator 19.0.0, SVG Export Plug-In . SVG Version: 6.00 Build 0)  -->
<svg version="1.1" id="Layer_1" xmlns="http://www.w3.org/2000/svg" xmlns:xlink="http://www.w3.org/1999/xlink" x="0px" y="0px"
	 viewBox="0 0 496 496" style="enable-background:new 0 0 496 496;" xml:space="preserve">
<g>
	<path style="fill:#C3D7DD;" d="M128.4,372c-1.6,0-2.4,0-4,0c-2.4,0-4-1.6-4-4s1.6-4,4-4c4.8,0,9.6,0,14.4-0.8c2.4,0,4,1.6,4,3.2
		c0,2.4-1.6,4-3.2,4C136.4,372,132.4,372,128.4,372z M109.2,370.4L109.2,370.4c-5.6-0.8-11.2-2.4-16-3.2c-2.4-0.8-3.2-2.4-2.4-4.8
		c0.8-1.6,2.4-3.2,4.8-2.4c4.8,1.6,9.6,2.4,14.4,3.2c2.4,0,3.2,2.4,3.2,4C112.4,368.8,110.8,370.4,109.2,370.4z M154.8,368.8
		c-1.6,0-3.2-0.8-4-3.2c-0.8-2.4,0.8-4,3.2-4.8c4.8-0.8,9.6-2.4,14.4-4c1.6-0.8,4,0,4.8,2.4c0.8,1.6,0,4-2.4,4.8
		c-4.8,1.6-9.6,3.2-15.2,4.8C155.6,368.8,154.8,368.8,154.8,368.8z M80.4,361.6c-0.8,0-0.8,0-1.6,0c-4.8-2.4-9.6-4.8-13.6-7.2
		c-1.6-0.8-2.4-3.2-1.6-5.6c0.8-1.6,3.2-2.4,5.6-1.6c4,2.4,8.8,4.8,12.8,6.4c1.6,0.8,3.2,3.2,1.6,4.8
		C82.8,360.8,81.2,361.6,80.4,361.6z M183.6,358.4c-1.6,0-2.4-0.8-3.2-2.4s0-4,1.6-4.8c4.8-2.4,8.8-4.8,12.8-8
		c1.6-0.8,4-0.8,5.6,0.8c0.8,1.6,0.8,4-0.8,5.6c-4,3.2-8.8,5.6-13.6,8C184.4,358.4,183.6,358.4,183.6,358.4z M54,346.4
		c-0.8,0-1.6,0-2.4-0.8c-4-3.2-8-6.4-12-10.4c-1.6-1.6-1.6-4,0-5.6s4-1.6,5.6,0c4,3.2,7.2,6.4,11.2,9.6c1.6,1.6,1.6,4,0.8,5.6
		C56.4,345.6,54.8,346.4,54,346.4z M208.4,341.6c-0.8,0-2.4-0.8-3.2-1.6c-1.6-1.6-1.6-4,0-5.6c4-3.2,7.2-7.2,10.4-10.4
		c1.6-1.6,4-1.6,5.6,0s1.6,4,0,5.6c-3.2,4-7.2,8-11.2,11.2C210,340.8,209.2,341.6,208.4,341.6z M32.4,324.8c-0.8,0-2.4-0.8-3.2-1.6
		c-3.2-4-6.4-8.8-8.8-12.8c-0.8-1.6-0.8-4,1.6-5.6c2.4-0.8,4.8-0.8,5.6,1.6c2.4,4,5.6,8,8,12c1.6,1.6,0.8,4-0.8,5.6
		C34,324,33.2,324.8,32.4,324.8z M228.4,318.4c-0.8,0-1.6,0-2.4-0.8c-1.6-0.8-2.4-3.2-0.8-5.6c2.4-4,5.6-8,7.2-12.8
		c0.8-1.6,3.2-2.4,4.8-1.6s2.4,3.2,1.6,4.8c-2.4,4.8-4.8,9.6-8,13.6C230.8,317.6,229.2,318.4,228.4,318.4z M17.2,298.4
		c-1.6,0-3.2-0.8-3.2-2.4c-2.4-4.8-4-9.6-4.8-15.2c-0.8-2.4,0.8-4,2.4-4.8c2.4-0.8,4,0.8,4.8,2.4c1.6,4.8,3.2,9.6,4.8,13.6
		c0.8,1.6,0,4-2.4,4.8C18.8,298.4,18,298.4,17.2,298.4z M242,291.2c-0.8,0-0.8,0-1.6,0c-1.6-0.8-3.2-3.2-2.4-4.8
		c1.6-4.8,3.2-9.6,4-14.4c0.8-2.4,2.4-3.2,4.8-3.2c2.4,0.8,3.2,2.4,3.2,4.8c-0.8,4.8-2.4,10.4-4,15.2
		C245.2,290.4,243.6,291.2,242,291.2z M9.2,268.8c-1.6,0-3.2-1.6-4-3.2c-0.8-4.8-0.8-9.6-1.6-14.4c0.8-2.4,2.4-3.2,4.8-3.2l0,0
		c2.4,0,4,0.8,4,2.4c0,4.8,0.8,9.6,0.8,14.4C13.2,267.2,12.4,268.8,9.2,268.8C10,268.8,9.2,268.8,9.2,268.8z M248.4,261.6
		C247.6,261.6,247.6,261.6,248.4,261.6c-2.4,0-4-2.4-4-4c0-3.2,0-6.4,0-9.6c0-1.6,0-4,0-5.6c0-2.4,1.6-4,4-4s4,1.6,4,4
		c0,1.6,0,4,0,5.6c0,3.2,0,6.4,0,9.6C251.6,260,250,261.6,248.4,261.6z M9.2,238.4C9.2,238.4,8.4,238.4,9.2,238.4c-2.4,0-4-2.4-4-4
		c0.8-5.6,1.6-10.4,2.4-15.2c0.8-2.4,3.2-4,4.8-3.2c2.4,0.8,3.2,2.4,3.2,4.8c-0.8,4.8-2.4,9.6-2.4,14.4
		C12.4,236.8,10.8,238.4,9.2,238.4z M246.8,231.2c-1.6,0-3.2-1.6-4-3.2c-0.8-4.8-2.4-9.6-3.2-14.4c-0.8-1.6,0.8-4,2.4-4.8
		c2.4-0.8,4,0.8,4.8,2.4c1.6,4.8,2.4,10.4,4,15.2C250.8,228.8,249.2,230.4,246.8,231.2L246.8,231.2z M16.4,208.8c-0.8,0-0.8,0-1.6,0
		c-1.6-0.8-3.2-3.2-2.4-4.8c1.6-4.8,4-9.6,6.4-14.4c0.8-1.6,3.2-2.4,4.8-1.6c1.6,0.8,2.4,3.2,1.6,4.8c-2.4,4-4,8.8-6.4,13.6
		C18.8,208,18,208.8,16.4,208.8z M238,201.6c-1.6,0-3.2-0.8-3.2-2.4c-2.4-4.8-4.8-8.8-7.2-12.8c-0.8-1.6-0.8-4,1.6-5.6
		c1.6-0.8,4-0.8,5.6,1.6c2.4,4.8,5.6,8.8,7.2,13.6c0.8,1.6,0,4-1.6,4.8C238.8,201.6,238,201.6,238,201.6z M30.8,182.4
		c-0.8,0-1.6,0-2.4-0.8c-1.6-1.6-2.4-4-0.8-5.6c3.2-4,6.4-8,9.6-12c1.6-1.6,4-1.6,5.6,0s1.6,4,0,5.6c-3.2,4-6.4,7.2-9.6,11.2
		C33.2,181.6,31.6,182.4,30.8,182.4z M221.2,176c-0.8,0-2.4-0.8-3.2-1.6c-3.2-4-6.4-7.2-9.6-11.2c-1.6-1.6-1.6-4,0-5.6s4-1.6,5.6,0
		c4,4,7.2,7.2,10.4,11.2c1.6,1.6,0.8,4-0.8,5.6C223.6,176,222.8,176,221.2,176z M50.8,160c-0.8,0-2.4-0.8-3.2-1.6
		c-1.6-1.6-0.8-4,0.8-5.6c4-3.2,8-6.4,12.8-9.6c1.6-0.8,4-0.8,5.6,0.8c0.8,1.6,0.8,4-0.8,5.6c-4,2.4-8,5.6-12,8.8
		C53.2,159.2,52.4,160,50.8,160z M199.6,155.2c-0.8,0-1.6,0-2.4-0.8c-4-3.2-8-5.6-12.8-8c-1.6-0.8-2.4-3.2-1.6-4.8
		c0.8-1.6,3.2-2.4,4.8-1.6c4.8,2.4,8.8,5.6,13.6,8.8c1.6,1.6,2.4,4,0.8,5.6C202,154.4,200.4,155.2,199.6,155.2z M76.4,143.2
		c-1.6,0-2.4-0.8-3.2-2.4c-0.8-1.6,0-4,1.6-4.8c4.8-2.4,9.6-4,14.4-5.6c1.6-0.8,4,0.8,4.8,2.4c0.8,2.4-0.8,4-2.4,4.8
		c-4.8,1.6-9.6,3.2-13.6,5.6C78,143.2,77.2,143.2,76.4,143.2z M173.2,140c-0.8,0-0.8,0-1.6,0c-4.8-1.6-9.6-3.2-14.4-4.8
		c-2.4-0.8-3.2-2.4-2.4-4.8c0.8-2.4,2.4-3.2,4.8-2.4c4.8,1.6,10.4,3.2,15.2,4.8c1.6,0.8,3.2,3.2,2.4,4.8
		C175.6,139.2,174.8,140,173.2,140z M106,133.6c-1.6,0-3.2-1.6-4-3.2c0-2.4,0.8-4,3.2-4.8c4.8-0.8,10.4-1.6,15.2-1.6
		c1.6,0,4,1.6,4,3.2c0-1.6,1.6-3.2,4-3.2c5.6,0,10.4,0,16,0.8c2.4,0,3.2,2.4,3.2,4c0,2.4-2.4,3.2-4,3.2c-4.8-0.8-9.6-0.8-14.4-0.8
		c-1.6,0-3.2-1.6-4-3.2c0,1.6-1.6,3.2-3.2,3.2C116.4,132,110.8,132.8,106,133.6L106,133.6z"/>
	<path style="fill:#C3D7DD;" d="M368.4,372c-1.6,0-2.4,0-4,0c-2.4,0-4-1.6-4-4s1.6-4,4-4c4.8,0,9.6,0,14.4-0.8c2.4,0,4,1.6,4,3.2
		c0,2.4-1.6,4-3.2,4C376.4,372,372.4,372,368.4,372z M349.2,370.4L349.2,370.4c-5.6-0.8-11.2-2.4-16-3.2c-1.6-0.8-3.2-2.4-2.4-4.8
		c0.8-1.6,2.4-3.2,4.8-2.4c4.8,1.6,9.6,2.4,14.4,3.2c2.4,0,3.2,2.4,3.2,4C353.2,368.8,351.6,370.4,349.2,370.4z M394.8,368.8
		c-1.6,0-3.2-1.6-4-3.2c-0.8-2.4,0.8-4,3.2-4.8c4.8-0.8,9.6-2.4,14.4-4c1.6-0.8,4,0,4.8,2.4c0.8,1.6,0,4-2.4,4.8
		c-4.8,1.6-10.4,3.2-15.2,4.8C395.6,368.8,394.8,368.8,394.8,368.8z M320.4,361.6c-0.8,0-0.8,0-1.6,0c-4.8-2.4-9.6-4.8-13.6-7.2
		c-1.6-0.8-2.4-3.2-1.6-5.6c0.8-1.6,3.2-2.4,5.6-1.6c4,2.4,8.8,4.8,12.8,6.4c1.6,0.8,2.4,3.2,1.6,4.8
		C322.8,360.8,322,361.6,320.4,361.6z M423.6,358.4c-1.6,0-2.4-0.8-3.2-2.4c-0.8-1.6,0-4,1.6-4.8c4-2.4,8.8-4.8,12.8-8
		c1.6-0.8,4-0.8,5.6,0.8c0.8,1.6,0.8,4-0.8,5.6c-4,3.2-8.8,5.6-13.6,8C424.4,358.4,424.4,358.4,423.6,358.4z M294,346.4
		c-0.8,0-1.6,0-2.4-0.8c-4-3.2-8-6.4-12-10.4c-1.6-1.6-1.6-4,0-5.6s4-1.6,5.6,0c3.2,3.2,7.2,6.4,11.2,9.6c1.6,1.6,1.6,4,0.8,5.6
		C296.4,345.6,295.6,346.4,294,346.4z M448.4,341.6c-0.8,0-2.4-0.8-3.2-1.6c-1.6-1.6-1.6-4,0-5.6c4-3.2,7.2-7.2,10.4-10.4
		c1.6-1.6,4-1.6,5.6,0s1.6,4,0,5.6c-3.2,4-7.2,8-11.2,11.2C450,340.8,449.2,341.6,448.4,341.6z M273.2,324.8c-0.8,0-2.4-0.8-3.2-1.6
		c-3.2-4-6.4-8.8-8.8-12.8c-0.8-1.6-0.8-4,1.6-5.6c1.6-0.8,4-0.8,5.6,1.6c2.4,4,5.6,8,8,12c1.6,1.6,0.8,4-0.8,5.6
		C274.8,324,274,324.8,273.2,324.8z M468.4,318.4c-0.8,0-1.6,0-2.4-0.8c-1.6-0.8-2.4-3.2-0.8-5.6c2.4-4,5.6-8,7.2-12.8
		c0.8-1.6,3.2-2.4,4.8-1.6c1.6,0.8,2.4,3.2,1.6,4.8c-2.4,4.8-4.8,9.6-8,13.6C470.8,317.6,470,318.4,468.4,318.4z M258,298.4
		c-1.6,0-3.2-0.8-3.2-2.4c-2.4-4.8-4-9.6-4.8-15.2c-0.8-2.4,0.8-4,2.4-4.8c2.4-0.8,4,0.8,4.8,2.4c1.6,4.8,3.2,9.6,4.8,13.6
		c0.8,1.6,0,4-2.4,4.8C258.8,298.4,258,298.4,258,298.4z M482,291.2c-0.8,0-0.8,0-1.6,0c-1.6-0.8-3.2-3.2-2.4-4.8
		c1.6-4.8,3.2-9.6,4-14.4c0.8-2.4,2.4-3.2,4.8-3.2c2.4,0.8,3.2,2.4,3.2,4.8c-0.8,4.8-2.4,10.4-4,15.2
		C485.2,290.4,483.6,291.2,482,291.2z M249.2,268.8c-1.6,0-3.2-1.6-4-3.2c-0.8-4.8-0.8-9.6-1.6-14.4c0-2.4,1.6-3.2,4-3.2l0,0
		c2.4,0,4,0.8,4,2.4c0,4.8,0.8,9.6,0.8,14.4C254,267.2,252.4,268.8,249.2,268.8C250,268.8,250,268.8,249.2,268.8z M488.4,261.6
		L488.4,261.6c-2.4,0-4-2.4-4-4c0-3.2,0-6.4,0-9.6c0-1.6,0-4,0-5.6c0-2.4,1.6-4,4-4s4,1.6,4,4c0,1.6,0,4,0,5.6c0,3.2,0,6.4,0,9.6
		C491.6,260,490,261.6,488.4,261.6z M249.2,238.4L249.2,238.4c-2.4,0-4-2.4-4-4c0.8-5.6,1.6-10.4,2.4-15.2c0.8-2.4,2.4-3.2,4.8-3.2
		c2.4,0.8,3.2,2.4,3.2,4.8c-0.8,4.8-2.4,9.6-2.4,14.4C252.4,236.8,250.8,238.4,249.2,238.4z M486.8,231.2c-1.6,0-3.2-1.6-4-3.2
		c-0.8-4.8-2.4-9.6-3.2-14.4c-0.8-1.6,0.8-4,2.4-4.8c2.4-0.8,4,0.8,4.8,2.4c1.6,4.8,2.4,10.4,4,15.2
		C490.8,228.8,489.2,230.4,486.8,231.2C487.6,231.2,486.8,231.2,486.8,231.2z M256.4,208.8c-0.8,0-0.8,0-1.6,0
		c-1.6-0.8-3.2-3.2-2.4-4.8c1.6-4.8,4-9.6,6.4-14.4c0.8-1.6,3.2-2.4,4.8-1.6c1.6,0.8,2.4,3.2,1.6,4.8c-2.4,4-4,8.8-6.4,13.6
		C259.6,208,258,208.8,256.4,208.8z M478,201.6c-1.6,0-3.2-0.8-3.2-2.4c-2.4-4.8-4-8.8-7.2-12.8c-0.8-1.6-0.8-4,1.6-5.6
		c1.6-0.8,4-0.8,5.6,1.6c2.4,4.8,5.6,8.8,7.2,13.6c0.8,1.6,0,4-1.6,4.8C478.8,201.6,478,201.6,478,201.6z M270.8,182.4
		c-0.8,0-1.6,0-2.4-0.8c-1.6-1.6-2.4-4-0.8-5.6c3.2-4,6.4-8,9.6-12c1.6-1.6,4-1.6,5.6,0s1.6,4,0,5.6c-3.2,4-6.4,7.2-9.6,11.2
		C273.2,181.6,271.6,182.4,270.8,182.4z M462,176c-0.8,0-2.4-0.8-3.2-1.6c-3.2-4-6.4-7.2-10.4-11.2c-1.6-1.6-1.6-4,0-5.6
		s4-1.6,5.6,0c4,4,7.2,7.2,10.4,11.2c1.6,1.6,0.8,4-0.8,5.6C463.6,176,462.8,176,462,176z M291.6,160c-0.8,0-2.4-0.8-3.2-1.6
		c-1.6-1.6-0.8-4,0.8-5.6c4-3.2,8-6.4,12.8-9.6c1.6-0.8,4-0.8,5.6,0.8c0.8,1.6,0.8,4-0.8,5.6c-4,2.4-8,5.6-12,8.8
		C293.2,159.2,292.4,160,291.6,160z M439.6,155.2c-0.8,0-1.6,0-2.4-0.8c-4-3.2-8-5.6-12.8-8c-1.6-0.8-2.4-3.2-1.6-5.6
		c0.8-1.6,3.2-2.4,5.6-1.6c4.8,2.4,8.8,5.6,13.6,8.8c1.6,1.6,2.4,4,0.8,5.6C442,154.4,441.2,155.2,439.6,155.2z M317.2,143.2
		c-1.6,0-2.4-0.8-3.2-2.4c-0.8-1.6,0-4,1.6-4.8c4.8-2.4,9.6-4,14.4-5.6c2.4-0.8,4,0.8,4.8,2.4c0.8,2.4-0.8,4-2.4,4.8
		c-4.8,1.6-9.6,3.2-13.6,5.6C318,143.2,317.2,143.2,317.2,143.2z M413.2,140c-0.8,0-0.8,0-1.6,0c-4.8-1.6-9.6-3.2-14.4-4.8
		c-2.4-0.8-3.2-2.4-2.4-4.8c0.8-2.4,2.4-3.2,4.8-2.4c4.8,1.6,10.4,3.2,15.2,4.8c1.6,0.8,3.2,3.2,2.4,4.8
		C416.4,139.2,414.8,140,413.2,140z M346,133.6c-1.6,0-3.2-1.6-4-3.2c0-2.4,0.8-4,3.2-4.8c4.8-0.8,10.4-1.6,15.2-1.6
		c1.6,0,4,1.6,4,3.2c0-1.6,1.6-3.2,4-3.2c5.6,0,10.4,0,16,0.8c2.4,0,3.2,2.4,3.2,4c0,2.4-2.4,3.2-4,3.2c-4.8-0.8-9.6-0.8-14.4-0.8
		c-1.6,0-3.2-1.6-4-3.2c0,1.6-1.6,3.2-3.2,3.2C356.4,132,351.6,132.8,346,133.6L346,133.6z"/>
	<path style="fill:#C3D7DD;" d="M188.4,268c-2.4,0-5.6,0-8,0s-4-1.6-3.2-4c0-2.4,2.4-4,4-3.2c4.8,0,9.6,0,14.4,0c2.4,0,4,1.6,4,3.2
		c0,2.4-1.6,4-3.2,4C193.2,268,190.8,268,188.4,268z M210.8,265.6c-1.6,0-3.2-1.6-4-3.2c0-2.4,0.8-4,3.2-4.8c4.8-0.8,9.6-2.4,14.4-4
		c1.6-0.8,4,0.8,4.8,2.4c0.8,2.4-0.8,4-2.4,4.8C222,263.2,217.2,264.8,210.8,265.6C211.6,265.6,211.6,265.6,210.8,265.6z
		 M165.2,265.6L165.2,265.6c-5.6-0.8-11.2-2.4-16-4c-1.6-0.8-3.2-3.2-2.4-4.8s3.2-3.2,4.8-2.4c4.8,1.6,9.6,2.4,14.4,4
		c2.4,0,3.2,2.4,3.2,4.8C169.2,264.8,167.6,265.6,165.2,265.6z M239.6,256c-1.6,0-2.4-0.8-3.2-2.4s0-4,1.6-4.8c2.4-1.6,5.6-2.4,8-4
		c1.6-0.8,3.2-1.6,4.8-3.2c1.6-0.8,4-0.8,5.6,0.8c0.8,1.6,0.8,4-0.8,5.6c-1.6,0.8-3.2,2.4-4.8,3.2c-3.2,1.6-5.6,3.2-8.8,4.8
		C241.2,256,240.4,256,239.6,256z M136.4,256c-0.8,0-0.8,0-1.6,0c-4.8-2.4-9.6-4.8-13.6-8c-1.6-0.8-2.4-3.2-0.8-5.6
		c0.8-1.6,3.2-2.4,5.6-0.8c4,2.4,8.8,4.8,12.8,7.2c1.6,0.8,2.4,3.2,1.6,4.8C139.6,255.2,138,256,136.4,256z M265.2,240
		c-0.8,0-2.4-0.8-3.2-1.6c-1.6-1.6-0.8-4,0.8-5.6c4-3.2,7.2-6.4,10.4-10.4c1.6-1.6,4-1.6,5.6,0s1.6,4,0,5.6
		c-3.2,4-7.2,7.2-11.2,11.2C267.6,240,266,240,265.2,240z M110.8,240c-0.8,0-1.6,0-2.4-0.8c-4-3.2-8-7.2-11.2-11.2
		c-1.6-1.6-1.6-4,0-5.6s4-1.6,5.6,0c3.2,4,7.2,7.2,10.4,10.4c1.6,1.6,1.6,4,0.8,5.6C113.2,239.2,112.4,240,110.8,240z M286,217.6
		c-0.8,0-1.6,0-2.4-0.8c-1.6-1.6-2.4-3.2-0.8-5.6c3.2-4,5.6-8,8-12.8c0.8-1.6,3.2-2.4,4.8-1.6c1.6,0.8,2.4,3.2,1.6,4.8
		c-2.4,4.8-5.6,8.8-8,13.6C288.4,216.8,287.6,217.6,286,217.6z M90.8,217.6c-0.8,0-2.4-0.8-3.2-1.6c-2.4-3.2-4-6.4-6.4-9.6
		c-0.8-0.8-1.6-2.4-1.6-3.2c-0.8-1.6,0-4,1.6-4.8s4,0,4.8,1.6c0.8,0.8,1.6,2.4,1.6,3.2c1.6,3.2,4,6.4,5.6,9.6c1.6,1.6,0.8,4-0.8,5.6
		C91.6,217.6,91.6,217.6,90.8,217.6z M300.4,190.4c-0.8,0-0.8,0-1.6,0c-1.6-0.8-3.2-3.2-2.4-4.8c1.6-4.8,3.2-9.6,4-14.4
		c0.8-2.4,2.4-3.2,4.8-3.2c2.4,0.8,3.2,2.4,3.2,4.8c-1.6,4.8-3.2,10.4-4.8,15.2C303.6,189.6,302,190.4,300.4,190.4z M76.4,190.4
		c-1.6,0-3.2-0.8-3.2-2.4c-1.6-4.8-3.2-9.6-4.8-15.2c-0.8-2.4,0.8-4,2.4-4.8c2.4-0.8,4,0.8,4.8,2.4c0.8,4.8,2.4,9.6,4,14.4
		c0.8,1.6,0,4-2.4,4.8C77.2,190.4,76.4,190.4,76.4,190.4z M307.6,160.8L307.6,160.8c-2.4,0-4-2.4-4-4c0.8-4,0.8-8.8,0.8-12.8v-3.2
		c0-2.4,1.6-4.8,4-4.8l0,0c2.4,0,4,3.2,4,4.8v2.4c0,4.8,0,9.6-0.8,14.4C311.6,159.2,310,160.8,307.6,160.8z M69.2,160
		c-1.6,0-3.2-0.8-4-3.2c-0.8-4-0.8-8.8-0.8-12.8v-3.2c0-2.4,1.6-4.8,4-4.8l0,0c2.4,0,4,3.2,4,4.8v2.4c0,4,0,8,0.8,12.8
		C73.2,158.4,71.6,160,69.2,160L69.2,160z M307.6,130.4c-1.6,0-3.2-1.6-4-3.2c-0.8-4.8-1.6-9.6-3.2-14.4c-0.8-2.4,0.8-4,2.4-4.8
		c2.4-0.8,4,0.8,4.8,2.4c1.6,4.8,2.4,10.4,3.2,15.2C311.6,128.8,310,130.4,307.6,130.4L307.6,130.4z M69.2,130.4L69.2,130.4
		c-2.4,0-4-2.4-4-4c0.8-4.8,1.6-10.4,3.2-15.2c0.8-2.4,2.4-3.2,4.8-2.4c2.4,0.8,3.2,2.4,2.4,4.8c-1.6,4.8-2.4,9.6-3.2,14.4
		C73.2,129.6,71.6,130.4,69.2,130.4z M298.8,101.6c-1.6,0-3.2-0.8-3.2-2.4c-1.6-4.8-4-8.8-6.4-13.6c-0.8-1.6-0.8-3.2,0.8-4.8
		c-1.6,0.8-3.2,0-4-1.6c-2.4-4-5.6-8-8.8-12c-1.6-1.6-0.8-4,0-5.6c1.6-1.6,4-0.8,5.6,0c3.2,4,6.4,8,9.6,12.8
		c0.8,1.6,0.8,3.2-0.8,4.8c1.6-0.8,4,0,4.8,1.6c2.4,4.8,4.8,9.6,7.2,14.4c0.8,1.6,0,4-2.4,4.8C300.4,101.6,299.6,101.6,298.8,101.6z
		 M78,101.6c-0.8,0-0.8,0-1.6,0c-1.6-0.8-3.2-3.2-2.4-4.8c2.4-4.8,4-9.6,7.2-14.4c0.8-1.6,3.2-2.4,5.6-1.6c1.6,0.8,2.4,3.2,1.6,5.6
		c-2.4,4-4.8,8.8-6.4,13.6C80.4,100.8,78.8,101.6,78,101.6z M93.2,75.2c-0.8,0-1.6,0-2.4-0.8c-1.6-1.6-1.6-4-0.8-5.6
		c3.2-4,6.4-8,10.4-12c1.6-1.6,4-1.6,5.6,0s1.6,4,0,5.6c-3.2,3.2-6.4,7.2-9.6,11.2C94.8,74.4,94,75.2,93.2,75.2z M268.4,58.4
		c-0.8,0-1.6,0-2.4-0.8c-4-3.2-7.2-6.4-11.2-8.8c-1.6-1.6-2.4-3.2-0.8-5.6c1.6-1.6,3.2-2.4,5.6-0.8c4,3.2,8.8,6.4,12,9.6
		c1.6,1.6,1.6,4,0,5.6C270.8,57.6,270,58.4,268.4,58.4z M114,53.6c-0.8,0-2.4-0.8-3.2-1.6c-1.6-1.6-0.8-4,0.8-5.6
		c4-3.2,8.8-6.4,13.6-8.8c1.6-0.8,4-0.8,5.6,1.6c0.8,1.6,0.8,4-1.6,5.6c-4,2.4-8,5.6-12,8C115.6,52.8,114.8,53.6,114,53.6z
		 M243.6,40.8c-0.8,0-0.8,0-1.6-0.8c-4-2.4-8.8-4-13.6-5.6c-1.6-0.8-3.2-3.2-2.4-4.8s3.2-3.2,4.8-2.4c4.8,1.6,9.6,4,14.4,6.4
		c1.6,0.8,2.4,3.2,1.6,4.8S245.2,40.8,243.6,40.8z M140.4,37.6c-1.6,0-3.2-0.8-3.2-2.4c-0.8-1.6,0-4,1.6-4.8c4.8-2.4,9.6-4,14.4-5.6
		c2.4-0.8,4,0.8,4.8,2.4c0.8,2.4,0,4.8-2.4,4.8c-4.8,1.6-9.6,3.2-13.6,4.8C141.2,37.6,141.2,37.6,140.4,37.6z M214.8,30.4H214
		c-4.8-0.8-9.6-1.6-14.4-2.4c-2.4,0-4-2.4-3.2-4c0-2.4,2.4-3.2,4-3.2c4.8,0.8,10.4,1.6,15.2,2.4c2.4,0.8,3.2,2.4,3.2,4.8
		C218,29.6,216.4,30.4,214.8,30.4z M169.2,28.8c-1.6,0-3.2-1.6-4-3.2c0-2.4,0.8-4,3.2-4c4.8-0.8,10.4-1.6,16-1.6c1.6,0,4,1.6,4,4
		s-1.6,4-4,4C179.6,28,174.8,28,169.2,28.8C170,28.8,170,28.8,169.2,28.8z"/>
	<path style="fill:#C3D7DD;" d="M308.4,476c-2.4,0-5.6,0-8,0s-4-1.6-3.2-4c0-2.4,1.6-4,4-3.2c4.8,0,9.6,0,14.4,0c2.4,0,4,1.6,4,3.2
		c0,2.4-1.6,4-3.2,4C314,476,310.8,476,308.4,476z M330.8,473.6c-1.6,0-3.2-1.6-4-3.2c0-2.4,0.8-4,3.2-4.8c4.8-0.8,9.6-2.4,14.4-4
		c1.6-0.8,4,0.8,4.8,2.4c0.8,2.4-0.8,4-2.4,4.8C342,471.2,337.2,472.8,330.8,473.6C331.6,473.6,331.6,473.6,330.8,473.6z M286,473.6
		C285.2,473.6,285.2,473.6,286,473.6c-5.6-0.8-11.2-2.4-16-4c-1.6-0.8-3.2-3.2-2.4-4.8c0.8-1.6,3.2-3.2,4.8-2.4
		c4.8,1.6,9.6,2.4,14.4,4c2.4,0,3.2,2.4,3.2,4.8C289.2,472.8,287.6,473.6,286,473.6z M360.4,464c-1.6,0-2.4-0.8-3.2-2.4
		c-0.8-1.6,0-4,1.6-4.8c2.4-1.6,5.6-2.4,8-4c1.6-0.8,3.2-1.6,4.8-3.2c1.6-0.8,4-0.8,5.6,0.8c0.8,1.6,0.8,4-0.8,5.6
		c-1.6,0.8-3.2,2.4-4.8,3.2c-3.2,1.6-5.6,3.2-8.8,4.8C361.2,464,360.4,464,360.4,464z M256.4,464c-0.8,0-0.8,0-1.6,0
		c-4.8-2.4-9.6-4.8-13.6-8c-1.6-0.8-2.4-3.2-0.8-5.6c0.8-1.6,3.2-2.4,5.6-0.8c4,2.4,8.8,4.8,12.8,7.2c1.6,0.8,2.4,3.2,1.6,4.8
		C259.6,463.2,258,464,256.4,464z M386,448c-0.8,0-2.4-0.8-3.2-1.6c-1.6-1.6-0.8-4,0.8-5.6c4-3.2,7.2-6.4,10.4-10.4
		c1.6-1.6,4-1.6,5.6,0s1.6,4,0,5.6c-3.2,4-7.2,7.2-11.2,11.2C387.6,447.2,386.8,448,386,448z M230.8,448c-0.8,0-1.6,0-2.4-0.8
		c-4-3.2-8-7.2-11.2-11.2c-1.6-1.6-1.6-4,0-5.6s4-1.6,5.6,0c3.2,4,7.2,7.2,10.4,10.4c1.6,1.6,1.6,4,0.8,5.6
		C233.2,447.2,232.4,448,230.8,448z M406,425.6c-0.8,0-1.6,0-2.4-0.8c-1.6-1.6-2.4-4-0.8-5.6c3.2-4,5.6-8,8-12.8
		c0.8-1.6,3.2-2.4,4.8-1.6c1.6,0.8,2.4,3.2,1.6,4.8c-2.4,4.8-5.6,8.8-8,13.6C408.4,424.8,407.6,425.6,406,425.6z M210.8,425.6
		c-0.8,0-2.4-0.8-3.2-1.6c-2.4-3.2-4-6.4-6.4-9.6c-0.8-1.6-1.6-2.4-1.6-3.2c-0.8-1.6,0-4,1.6-4.8s4,0,4.8,1.6
		c0.8,0.8,1.6,2.4,1.6,3.2c1.6,3.2,4,6.4,5.6,9.6c1.6,1.6,0.8,4-0.8,5.6C212.4,424.8,211.6,425.6,210.8,425.6z M420.4,398.4
		c-0.8,0-0.8,0-1.6,0c-1.6-0.8-3.2-3.2-2.4-4.8c1.6-4.8,3.2-9.6,4-14.4c0.8-2.4,2.4-3.2,4.8-2.4c2.4,0.8,3.2,2.4,2.4,4.8
		c-1.6,4.8-2.4,10.4-4.8,15.2C423.6,397.6,422,398.4,420.4,398.4z M196.4,398.4c-1.6,0-3.2-0.8-3.2-2.4c-1.6-4.8-3.2-9.6-4.8-15.2
		c-0.8-2.4,0.8-4,3.2-4.8s4,0.8,4.8,3.2c0.8,4.8,2.4,9.6,4,14.4c0.8,1.6,0,4-2.4,4.8C197.2,398.4,196.4,398.4,196.4,398.4z
		 M427.6,368.8L427.6,368.8c-2.4,0-4-2.4-4-4c0.8-4,0.8-8.8,0.8-12.8v-3.2c0-2.4,1.6-4.8,4-4.8l0,0c2.4,0,4,3.2,4,4.8v2.4
		c0,4.8,0,9.6-0.8,14.4C431.6,367.2,430,368.8,427.6,368.8z M189.2,368.8c-1.6,0-3.2-1.6-4-3.2c-0.8-4.8-0.8-8.8-0.8-13.6v-3.2
		c0-2.4,1.6-4.8,4-4.8l0,0c2.4,0,4,3.2,4,4.8v2.4c0,4,0,8.8,0.8,12.8C193.2,366.4,191.6,368.8,189.2,368.8L189.2,368.8z
		 M427.6,338.4c-1.6,0-3.2-1.6-4-3.2c-0.8-4.8-1.6-9.6-3.2-14.4c-0.8-2.4,0.8-4,2.4-4.8c2.4-0.8,4,0.8,4.8,2.4
		c1.6,4.8,2.4,10.4,3.2,15.2C431.6,336.8,430,338.4,427.6,338.4L427.6,338.4z M189.2,338.4L189.2,338.4c-2.4,0-4-2.4-4-4
		c0.8-4.8,1.6-10.4,3.2-15.2c0.8-2.4,2.4-3.2,4.8-2.4c2.4,0.8,3.2,2.4,2.4,4.8c-1.6,4.8-2.4,9.6-3.2,14.4
		C193.2,337.6,191.6,338.4,189.2,338.4z M419.6,309.6c-1.6,0-3.2-0.8-3.2-2.4c-1.6-4.8-4-8.8-6.4-13.6c-0.8-1.6-0.8-3.2,0.8-4.8
		c-1.6,0.8-3.2,0-4-1.6c-2.4-4-5.6-8-8.8-12c-1.6-1.6-0.8-4,0-5.6c1.6-1.6,4-1.6,5.6,0.8c3.2,4,6.4,8,9.6,12.8
		c0.8,1.6,0.8,3.2-0.8,4.8c1.6-0.8,3.2,0,4.8,1.6c2.4,4.8,4.8,9.6,7.2,14.4c0.8,1.6,0,4-2.4,4.8
		C420.4,309.6,419.6,309.6,419.6,309.6z M198,309.6c-0.8,0-0.8,0-1.6,0c-1.6-0.8-3.2-3.2-2.4-4.8c2.4-4.8,4-9.6,7.2-14.4
		c0.8-1.6,3.2-2.4,5.6-1.6c1.6,0.8,2.4,3.2,1.6,5.6c-2.4,4-4.8,8.8-6.4,13.6C200.4,308,198.8,309.6,198,309.6z M213.2,283.2
		c-0.8,0-1.6,0-2.4-0.8c-1.6-1.6-1.6-4-0.8-5.6c3.2-4,6.4-8,10.4-12c1.6-1.6,4-1.6,5.6,0s1.6,4,0,5.6c-3.2,3.2-6.4,7.2-9.6,11.2
		C214.8,282.4,214,283.2,213.2,283.2z M388.4,266.4c-0.8,0-1.6,0-2.4-0.8c-4-3.2-7.2-6.4-11.2-8.8c-1.6-1.6-2.4-3.2-0.8-5.6
		c0.8-1.6,3.2-2.4,5.6-0.8c4,3.2,8.8,6.4,12,9.6c1.6,1.6,1.6,4,0,5.6C390.8,265.6,390,266.4,388.4,266.4z M234,261.6
		c-0.8,0-2.4-0.8-3.2-1.6c-1.6-1.6-0.8-4,0.8-5.6c4-3.2,8.8-6.4,12.8-8.8c1.6-0.8,4-0.8,5.6,1.6c0.8,1.6,0.8,4-1.6,5.6
		c-4,2.4-8,5.6-12,8C235.6,260.8,234.8,261.6,234,261.6z M363.6,248.8c-0.8,0-0.8,0-1.6-0.8c-4-2.4-8.8-4-13.6-5.6
		c-1.6-0.8-3.2-3.2-2.4-4.8c0.8-1.6,3.2-3.2,4.8-2.4c4.8,1.6,9.6,4,14.4,6.4c1.6,0.8,2.4,3.2,1.6,4.8
		C366,248,365.2,248.8,363.6,248.8z M260.4,245.6c-1.6,0-3.2-0.8-3.2-2.4c-0.8-1.6,0-4,1.6-4.8c4.8-2.4,9.6-4,14.4-5.6
		c2.4-0.8,4,0.8,4.8,2.4c0.8,2.4-0.8,4-2.4,4.8c-4.8,1.6-9.6,3.2-13.6,4.8C261.2,245.6,261.2,245.6,260.4,245.6z M334.8,238.4H334
		c-4.8-0.8-9.6-1.6-14.4-2.4c-2.4,0-4-2.4-3.2-4c0-2.4,2.4-3.2,4-3.2c4.8,0.8,10.4,1.6,15.2,2.4c2.4,0.8,3.2,2.4,3.2,4.8
		C338,237.6,337.2,238.4,334.8,238.4z M290,236.8c-1.6,0-3.2-1.6-4-3.2c0-2.4,0.8-4,3.2-4c4.8-0.8,10.4-1.6,16-1.6c1.6,0,4,1.6,4,4
		s-1.6,4-4,4C300.4,236,294.8,236,290,236.8L290,236.8z"/>
	<path style="fill:#C3D7DD;" d="M188.4,476c-2.4,0-4-1.6-4-4s1.6-4,4-4c4.8,0,9.6,0,14.4-0.8c2.4,0,4,0.8,4,3.2c0,2.4-1.6,4-3.2,4
		C198.8,476,193.2,476,188.4,476z M173.2,475.2C173.2,475.2,172.4,475.2,173.2,475.2c-5.6-0.8-11.2-1.6-16-3.2
		c-2.4-0.8-3.2-2.4-2.4-4.8s2.4-3.2,4.8-2.4c4.8,1.6,9.6,2.4,14.4,3.2c2.4,0,3.2,2.4,3.2,4C176.4,473.6,174.8,475.2,173.2,475.2z
		 M218.8,472c-1.6,0-3.2-0.8-4-3.2c-0.8-2.4,0.8-4,2.4-4.8c4.8-1.6,9.6-2.4,14.4-4.8c1.6-0.8,4,0,4.8,2.4c0.8,1.6,0,4-2.4,4.8
		c-4.8,1.6-9.6,3.2-15.2,4.8C218.8,472,218.8,472,218.8,472z M143.6,467.2c-0.8,0-0.8,0-1.6,0c-4.8-1.6-9.6-4-14.4-6.4
		c-1.6-0.8-2.4-3.2-1.6-4.8c0.8-1.6,3.2-2.4,4.8-1.6c4,2.4,8.8,4.8,13.6,6.4c1.6,0.8,3.2,3.2,2.4,4.8
		C146.8,466.4,145.2,467.2,143.6,467.2z M246.8,460.8c-1.6,0-2.4-0.8-3.2-1.6c-0.8-1.6,0-4,1.6-4.8c4-2.4,8.8-4.8,12.8-8
		c1.6-1.6,4-0.8,5.6,0.8c1.6,1.6,0.8,4-0.8,5.6c-4,3.2-8.8,5.6-13.6,8.8C247.6,460.8,247.6,460.8,246.8,460.8z M117.2,452.8
		c-0.8,0-1.6,0-2.4-0.8c-4-3.2-8-6.4-12-10.4c-1.6-1.6-1.6-4,0-5.6s4-1.6,5.6,0c3.2,3.2,7.2,6.4,11.2,9.6c1.6,1.6,2.4,4,0.8,5.6
		C119.6,452,118,452.8,117.2,452.8z M271.6,443.2c-0.8,0-2.4,0-2.4-0.8c-1.6-1.6-1.6-4,0-5.6c3.2-3.2,7.2-7.2,10.4-11.2
		c1.6-1.6,4-1.6,5.6-0.8c1.6,1.6,1.6,4,0.8,5.6c-3.2,4-7.2,8-10.4,11.2C273.2,442.4,272.4,443.2,271.6,443.2z M94.8,431.2
		c-0.8,0-2.4-0.8-3.2-1.6c-3.2-4-6.4-8-8.8-12.8c-0.8-1.6-0.8-4,1.6-5.6c1.6-0.8,4-0.8,5.6,1.6c2.4,4,5.6,8,8.8,12
		c1.6,1.6,0.8,4-0.8,5.6C96.4,431.2,95.6,431.2,94.8,431.2z M290,419.2c-0.8,0-1.6,0-1.6-0.8c-1.6-0.8-2.4-3.2-1.6-5.6
		c0.8-0.8,1.6-2.4,1.6-3.2c1.6-3.2,3.2-6.4,4.8-9.6c0.8-1.6,3.2-2.4,4.8-1.6c1.6,0.8,2.4,3.2,1.6,4.8c-1.6,3.2-3.2,7.2-5.6,10.4
		c-0.8,0.8-1.6,2.4-2.4,3.2C293.2,418.4,291.6,419.2,290,419.2z M78.8,405.6c-1.6,0-3.2-0.8-3.2-2.4c-2.4-4.8-4-9.6-5.6-14.4
		c-0.8-2.4,0.8-4,2.4-4.8c2.4-0.8,4,0.8,4.8,2.4c1.6,4.8,3.2,9.6,5.6,13.6c0.8,1.6,0,4-1.6,4.8C80.4,405.6,79.6,405.6,78.8,405.6z
		 M302.8,391.2H302c-2.4-0.8-3.2-2.4-2.4-4.8c1.6-4.8,2.4-9.6,3.2-14.4c0-2.4,2.4-3.2,4-3.2c2.4,0,3.2,2.4,3.2,4
		c-0.8,4.8-2.4,10.4-4,15.2C306,390.4,304.4,391.2,302.8,391.2z M70,376.8c-1.6,0-3.2-1.6-4-3.2c-0.8-5.6-1.6-10.4-1.6-16
		c0-2.4,1.6-4,4-4c1.6,0,4,1.6,4,4c0,4.8,0.8,9.6,1.6,14.4C74,374.4,72.4,376,70,376.8C70.8,376.8,70,376.8,70,376.8z M308.4,361.6
		L308.4,361.6c-2.4,0-4-1.6-4-4c0-1.6,0-4,0-5.6c0-3.2,0-6.4,0-9.6c0-2.4,1.6-4,3.2-4c2.4,0,4,1.6,4,3.2c0,3.2,0,6.4,0,9.6
		c0,1.6,0,4,0,5.6C312.4,360,310.8,361.6,308.4,361.6z M68.4,346.4L68.4,346.4c-2.4,0-4-2.4-4-4c0.8-4.8,0.8-10.4,2.4-15.2
		c0.8-2.4,2.4-3.2,4.8-3.2c2.4,0.8,3.2,2.4,3.2,4.8c-0.8,4.8-1.6,9.6-2.4,14.4C72.4,344.8,70.8,346.4,68.4,346.4z M306,331.2
		c-1.6,0-3.2-1.6-4-3.2c-0.8-4.8-2.4-9.6-4-14.4c-0.8-1.6,0-4,2.4-4.8c1.6-0.8,4,0,4.8,2.4c1.6,4.8,3.2,10.4,4,15.2
		C310,328.8,308.4,330.4,306,331.2C306.8,331.2,306,331.2,306,331.2z M74.8,316c-0.8,0-0.8,0-1.6,0c-1.6-0.8-3.2-3.2-2.4-4.8
		c1.6-4.8,4-9.6,6.4-14.4c0.8-1.6,2.4-2.4,4-1.6c-1.6-0.8-1.6-3.2-0.8-4.8c2.4-4.8,5.6-8.8,8.8-12.8c1.6-1.6,4-2.4,5.6-0.8
		s2.4,4,0.8,5.6c-3.2,4-5.6,8-8,12c-0.8,1.6-2.4,2.4-4,1.6c1.6,0.8,1.6,3.2,0.8,4.8c-2.4,4.8-4,8.8-5.6,13.6
		C78,315.2,76.4,316,74.8,316z M296.4,302.4c-1.6,0-2.4-0.8-3.2-2.4c-2.4-4.8-4.8-8.8-7.2-12.8c-0.8-1.6-0.8-4,0.8-5.6
		c1.6-0.8,4-0.8,5.6,0.8c3.2,4,5.6,8.8,8,13.6c0.8,1.6,0,4-1.6,4.8C297.2,302.4,296.4,302.4,296.4,302.4z M279.6,276.8
		c-0.8,0-2.4-0.8-3.2-1.6c-3.2-4-6.4-7.2-10.4-10.4c-1.6-1.6-1.6-4,0-5.6s4-1.6,5.6,0c4,3.2,8,7.2,11.2,11.2c1.6,1.6,1.6,4,0,5.6
		C281.2,276.8,280.4,276.8,279.6,276.8z M102.8,271.2c-0.8,0-1.6,0-2.4-0.8c-1.6-1.6-1.6-4,0-5.6c4-4,8-7.2,12-10.4
		c1.6-1.6,4-0.8,5.6,0.8c1.6,1.6,0.8,4-0.8,5.6c-4,3.2-7.2,6.4-11.2,9.6C104.4,271.2,103.6,271.2,102.8,271.2z M256.4,256.8
		c-0.8,0-1.6,0-2.4-0.8c-2.4-1.6-4.8-3.2-8-4.8c-1.6-0.8-3.2-1.6-4.8-2.4s-2.4-3.2-1.6-4.8c0.8-1.6,3.2-2.4,4.8-1.6
		c1.6,0.8,3.2,1.6,4.8,2.4c3.2,1.6,5.6,3.2,8,5.6c1.6,1.6,2.4,3.2,0.8,5.6C258.8,256,258,256.8,256.4,256.8z M126.8,252.8
		c-1.6,0-2.4-0.8-3.2-1.6c-0.8-1.6-0.8-4,1.6-5.6c4.8-2.4,8.8-4.8,13.6-7.2c1.6-0.8,4,0,4.8,1.6s0,4-1.6,4.8
		c-4.8,1.6-8.8,4-12.8,6.4C128.4,252.8,127.6,252.8,126.8,252.8z M229.2,243.2c-0.8,0-0.8,0-1.6,0c-4.8-1.6-9.6-3.2-14.4-4
		c-2.4-0.8-3.2-2.4-3.2-4.8c0.8-2.4,2.4-3.2,4.8-3.2c4.8,0.8,10.4,2.4,15.2,4.8c1.6,0.8,3.2,3.2,2.4,4.8
		C232.4,241.6,230.8,243.2,229.2,243.2z M154.8,240.8c-1.6,0-3.2-0.8-4-2.4c-0.8-1.6,0.8-4,2.4-4.8c4.8-1.6,10.4-2.4,15.2-3.2
		c2.4,0,4,0.8,4,3.2s-0.8,4-3.2,4C164.4,238.4,159.6,239.2,154.8,240.8C155.6,240.8,154.8,240.8,154.8,240.8z M199.6,236L199.6,236
		c-5.6-0.8-10.4-0.8-15.2-0.8c-2.4,0-4-1.6-4-4s1.6-4,4-4c4.8,0,10.4,0,16,0.8c2.4,0,4,2.4,3.2,4C203.6,234.4,202,236,199.6,236z"/>
	<path style="fill:#C3D7DD;" d="M308.4,268c-1.6,0-4,0-4-2.4s1.6-1.6,4-1.6l0,0c4.8,0,9.6-2.4,14.4-2.4c2.4,0,4,0,4,2.4
		s-1.6,3.2-3.2,4C318.8,268,314,268,308.4,268z M293.2,267.2C293.2,267.2,292.4,267.2,293.2,267.2c-5.6-0.8-11.2-1.6-16-3.2
		c-2.4-0.8-3.2-2.4-2.4-4.8c0.8-2.4,2.4-3.2,4.8-2.4c4.8,1.6,9.6,2.4,14.4,3.2c2.4,0,3.2,2.4,3.2,4
		C296.4,265.6,294.8,267.2,293.2,267.2z M338.8,264c-1.6,0-3.2-0.8-4-3.2c-0.8-2.4,0.8-4,2.4-4.8c4.8-1.6,9.6-2.4,14.4-4.8
		c1.6-0.8,4,0,4.8,2.4c0.8,1.6,0,4-2.4,4.8c-4.8,1.6-9.6,3.2-15.2,4.8C338.8,264,338.8,264,338.8,264z M263.6,259.2
		c-0.8,0-0.8,0-1.6,0c-4.8-1.6-9.6-4-14.4-6.4c-1.6-0.8-2.4-3.2-1.6-4.8c0.8-1.6,3.2-2.4,4.8-1.6c4,2.4,8.8,4.8,13.6,6.4
		c1.6,0.8,3.2,3.2,2.4,4.8C266.8,258.4,265.2,259.2,263.6,259.2z M366.8,252.8c-1.6,0-2.4-0.8-3.2-1.6c-0.8-1.6,0-4,1.6-4.8
		c4-2.4,8.8-4.8,12.8-8c1.6-1.6,4-0.8,5.6,0.8s0.8,4-0.8,5.6c-4,3.2-8.8,5.6-13.6,8.8C368.4,252.8,367.6,252.8,366.8,252.8z
		 M237.2,244.8c-0.8,0-1.6,0-2.4-0.8c-4-3.2-8-6.4-12-10.4c-1.6-1.6-1.6-4,0-5.6s4-1.6,5.6,0c3.2,3.2,7.2,6.4,11.2,9.6
		c1.6,1.6,2.4,4,0.8,5.6C239.6,244,238,244.8,237.2,244.8z M391.6,235.2c-0.8,0-2.4,0-2.4-0.8c-1.6-1.6-1.6-4,0-5.6
		c3.2-3.2,7.2-7.2,10.4-11.2c1.6-1.6,4-1.6,5.6-0.8c1.6,1.6,1.6,4,0.8,5.6c-3.2,4-7.2,8-10.4,11.2
		C393.2,234.4,392.4,235.2,391.6,235.2z M214.8,223.2c-0.8,0-2.4-0.8-3.2-1.6c-3.2-4-6.4-8-8.8-12.8c-0.8-1.6-0.8-4,1.6-5.6
		c1.6-0.8,4-0.8,5.6,1.6c2.4,4,5.6,8,8.8,12c1.6,1.6,0.8,4-0.8,5.6C216.4,223.2,215.6,223.2,214.8,223.2z M410.8,211.2
		c-0.8,0-1.6,0-1.6-0.8c-1.6-0.8-2.4-3.2-1.6-5.6c0.8-0.8,1.6-2.4,1.6-3.2c1.6-3.2,3.2-6.4,4.8-9.6c0.8-1.6,3.2-2.4,4.8-1.6
		c1.6,0.8,2.4,3.2,1.6,4.8c-1.6,3.2-3.2,7.2-5.6,10.4c-0.8,0.8-1.6,2.4-2.4,3.2C413.2,210.4,411.6,211.2,410.8,211.2z M198.8,197.6
		c-1.6,0-3.2-0.8-3.2-2.4c-2.4-4.8-4-9.6-5.6-14.4c-0.8-1.6,0.8-4,2.4-4.8c2.4-0.8,4,0.8,4.8,2.4c1.6,4.8,3.2,9.6,5.6,13.6
		c0.8,1.6,0,4-1.6,4.8C200.4,197.6,199.6,197.6,198.8,197.6z M422.8,184H422c-2.4-0.8-3.2-2.4-2.4-4.8c1.6-4.8,2.4-9.6,3.2-14.4
		c0-2.4,2.4-3.2,4-3.2c2.4,0,3.2,2.4,3.2,4.8c-0.8,4.8-2.4,10.4-4,15.2C426,182.4,424.4,184,422.8,184z M190,168.8
		c-1.6,0-3.2-1.6-4-3.2c-0.8-4.8-1.6-10.4-1.6-16c0-2.4,1.6-4,4-4l0,0c2.4,0,4,1.6,4,4c0,4.8,0.8,9.6,1.6,14.4
		C194,166.4,193.2,168,190,168.8C190.8,168.8,190,168.8,190,168.8z M428.4,153.6L428.4,153.6c-2.4,0-4-1.6-4-4c0-1.6,0-4,0-5.6
		c0-3.2,0-6.4,0-9.6c0-2.4,1.6-4,3.2-4c2.4,0,4,1.6,4,3.2c0,3.2,0,6.4,0,9.6c0,1.6,0,4,0,5.6C432.4,152,430.8,153.6,428.4,153.6z
		 M188.4,138.4L188.4,138.4c-2.4,0-4-2.4-4-4c0.8-4.8,0.8-10.4,2.4-15.2c0.8-2.4,2.4-3.2,4.8-3.2c2.4,0.8,3.2,2.4,3.2,4.8
		c-0.8,4.8-1.6,9.6-2.4,14.4C192.4,136.8,190.8,138.4,188.4,138.4z M426,123.2c-1.6,0-3.2-1.6-4-3.2c-0.8-4.8-2.4-9.6-4-14.4
		c-0.8-1.6,0-4,2.4-4.8c1.6-0.8,4,0,4.8,2.4c1.6,4.8,3.2,10.4,4,15.2C430,120.8,429.2,123.2,426,123.2
		C426.8,123.2,426,123.2,426,123.2z M194.8,108c-0.8,0-0.8,0-1.6,0c-1.6-0.8-3.2-3.2-2.4-4.8c1.6-4.8,4-9.6,6.4-14.4
		c0.8-1.6,2.4-2.4,4.8-1.6c-1.6-0.8-1.6-3.2-0.8-4.8c2.4-4.8,5.6-8.8,8.8-12.8c1.6-1.6,4-2.4,5.6-0.8s1.6,4,0.8,5.6
		c-3.2,4-5.6,8-8,12c-0.8,1.6-2.4,2.4-4,1.6c1.6,0.8,1.6,3.2,0.8,4.8c-2.4,4-4,8.8-5.6,13.6C198,107.2,196.4,108,194.8,108z
		 M416.4,94.4c-1.6,0-2.4-0.8-3.2-2.4c-2.4-4-4.8-8-8-12c-0.8-1.6-0.8-4,0.8-5.6c1.6-0.8,4-0.8,5.6,0.8c3.2,4,5.6,8.8,8,13.6
		c0.8,1.6,0,4-1.6,4.8C417.2,94.4,416.4,94.4,416.4,94.4z M399.6,68.8c-0.8,0-2.4-0.8-3.2-1.6c-3.2-4-6.4-7.2-10.4-10.4
		c-1.6-0.8-1.6-3.2,0-4.8s4-1.6,5.6,0c4,3.2,8,7.2,11.2,11.2c1.6,1.6,1.6,4,0,5.6C401.2,68.8,400.4,68.8,399.6,68.8z M222.8,63.2
		c-0.8,0-1.6,0-2.4-0.8c-1.6-1.6-1.6-4,0-5.6c4-4,8-7.2,12-10.4c1.6-1.6,4-0.8,5.6,0.8s0.8,4-0.8,5.6c-4.8,3.2-8,6.4-12,9.6
		C225.2,63.2,223.6,63.2,222.8,63.2z M376.4,48.8c-0.8,0-1.6,0-2.4-0.8c-2.4-1.6-4.8-3.2-8-4.8c-1.6-0.8-3.2-1.6-4.8-2.4
		c-1.6-0.8-2.4-3.2-0.8-5.6c0.8-1.6,3.2-2.4,4.8-1.6c1.6,0.8,3.2,1.6,4.8,3.2c3.2,1.6,5.6,3.2,8,5.6c1.6,1.6,2.4,3.2,0.8,5.6
		C378.8,48,378,48.8,376.4,48.8z M246.8,44.8c-1.6,0-2.4-0.8-3.2-1.6c-0.8-1.6-0.8-4,1.6-5.6c4.8-2.4,8.8-4.8,13.6-7.2
		c1.6-0.8,4,0,4.8,1.6s0,4-1.6,4.8c-4.8,1.6-8.8,4-12.8,6.4C248.4,44.8,247.6,44.8,246.8,44.8z M349.2,35.2c-0.8,0-0.8,0-1.6,0
		c-4.8-1.6-9.6-3.2-14.4-4c-2.4-0.8-3.2-2.4-3.2-4.8c0.8-2.4,2.4-3.2,4.8-3.2c4.8,0.8,10.4,2.4,15.2,4.8c1.6,0.8,3.2,3.2,2.4,4.8
		C352.4,33.6,350.8,35.2,349.2,35.2z M274.8,32.8c-1.6,0-3.2-0.8-4-2.4c-0.8-2.4,0.8-4,2.4-4.8c4.8-1.6,10.4-2.4,15.2-3.2
		c2.4,0,4,0.8,4,3.2s-0.8,4-3.2,4C284.4,30.4,279.6,31.2,274.8,32.8C275.6,32.8,274.8,32.8,274.8,32.8z M319.6,28L319.6,28
		c-5.6-0.8-10.4-0.8-15.2-0.8c-2.4,0-4-1.6-4-4s1.6-4,4-4c5.6,0,10.4,0,16,0.8c2.4,0,4,2.4,3.2,4C323.6,26.4,322,28,319.6,28z"/>
</g>
<g>
	<path style="fill:#21CCE8;" d="M144.4,316c-22.4,0-44-5.6-64-16.8C19.6,263.2-1.2,184.8,34,124c22.4-39.2,65.6-64,110.4-64
		c22.4,0,44,5.6,64,16.8c60.8,35.2,81.6,113.6,46.4,174.4C232.4,291.2,190,316,144.4,316z M144.4,75.2c-40,0-77.6,21.6-97.6,56
		c-31.2,54.4-12,123.2,41.6,154.4c16.8,9.6,36.8,15.2,56,15.2c40,0,77.6-21.6,97.6-56c31.2-53.6,12.8-122.4-40.8-153.6
		C183.6,80.8,164.4,75.2,144.4,75.2z"/>
	<path style="fill:#21CCE8;" d="M352.4,436c-22.4,0-44-5.6-64-16.8c-29.6-16.8-50.4-44.8-59.2-77.6s-4-67.2,12.8-96.8
		c22.4-39.2,64.8-64,110.4-64c22.4,0,44,5.6,64,16.8c60.8,35.2,81.6,113.6,46.4,174.4C440.4,411.2,398,436,352.4,436z M352.4,195.2
		c-40,0-77.6,21.6-97.6,56c-15.2,26.4-19.2,56-11.2,85.6c8,29.6,26.4,53.6,52.8,68c16.8,9.6,36.8,15.2,56,15.2
		c40,0,77.6-21.6,97.6-56c31.2-53.6,12.8-122.4-40.8-153.6C391.6,200.8,372.4,195.2,352.4,195.2z"/>
	<path style="fill:#21CCE8;" d="M248.4,256c-70.4,0-128-57.6-128-128S178,0,248.4,0s128,57.6,128,128S318.8,256,248.4,256z
		 M248.4,15.2C186,15.2,135.6,65.6,135.6,128S186,240.8,248.4,240.8S361.2,190.4,361.2,128S310.8,15.2,248.4,15.2z"/>
	<path style="fill:#21CCE8;" d="M248.4,496c-70.4,0-128-57.6-128-128s57.6-128,128-128s128,57.6,128,128S318.8,496,248.4,496z
		 M248.4,255.2c-62.4,0-112.8,50.4-112.8,112.8S186,480.8,248.4,480.8S361.2,430.4,361.2,368C361.2,306.4,310.8,255.2,248.4,255.2z"
		/>
	<path style="fill:#21CCE8;" d="M144.4,436c-45.6,0-88-24.8-110.4-64c-35.2-60.8-14.4-139.2,46.4-174.4c19.2-11.2,41.6-16.8,64-16.8
		c45.6,0,88,24.8,110.4,64c35.2,60.8,14.4,139.2-46.4,174.4C189.2,429.6,166.8,436,144.4,436z M144.4,195.2c-20,0-39.2,5.6-56,15.2
		c-53.6,31.2-72,100-40.8,153.6c20,34.4,57.6,56,97.6,56c20,0,39.2-5.6,56-15.2c53.6-31.2,72-100,40.8-153.6
		C222,216.8,184.4,195.2,144.4,195.2z"/>
	<path style="fill:#21CCE8;" d="M352.4,316c-45.6,0-88-24.8-110.4-64c-16.8-29.6-21.6-64-12.8-96.8s29.6-60.8,59.2-77.6
		c19.2-11.2,41.6-16.8,64-16.8c45.6,0,88,24.8,110.4,64c16.8,29.6,21.6,64,12.8,96.8c-8.8,32.8-29.6,60.8-59.2,77.6
		C397.2,309.6,374.8,316,352.4,316z M352.4,75.2c-20,0-39.2,5.6-56,15.2c-26.4,15.2-44.8,39.2-52.8,68c-8,28.8-4,59.2,11.2,85.6
		c20,34.4,57.6,56,97.6,56c20,0,39.2-5.6,56-15.2c26.4-15.2,44.8-39.2,52.8-68s4-59.2-11.2-85.6C430,96.8,392.4,75.2,352.4,75.2z"/>
</g>
<g>
</g>
<g>
</g>
<g>
</g>
<g>
</g>
<g>
</g>
<g>
</g>
<g>
</g>
<g>
</g>
<g>
</g>
<g>
</g>
<g>
</g>
<g>
</g>
<g>
</g>
<g>
</g>
<g>
</g>
</svg>
